<svg id="law_Image" data-name="law Image" xmlns="http://www.w3.org/2000/svg" viewBox="0 0 21.52 13.8"><defs><style>.cls-1{fill:#016c74;}.cls-2{fill:#fff;}.cls-3{fill:#849b53;}.cls-4{fill:#729e22;}</style></defs><g id="Rhine"><path class="cls-1" d="M2,5.15V7.52H1.47V1.81H2.78a1.85,1.85,0,0,1,1.31.41,1.59,1.59,0,0,1,.42,1.21A1.51,1.51,0,0,1,3.54,5l1.3,2.56H4.19L3,5.15Zm0-.57h.77a1.14,1.14,0,0,0,.86-.28,1.14,1.14,0,0,0,.28-.84,1,1,0,0,0-.28-.81,1.33,1.33,0,0,0-.9-.25H2Z" transform="translate(-1.16 -1.45)"/><path class="cls-1" d="M7.64,7.52V4.75A1.32,1.32,0,0,0,7.44,4a.77.77,0,0,0-.63-.25A1,1,0,0,0,6,4.08a2.19,2.19,0,0,0-.26,1.21V7.52H5.17V1.45h.55V3.29a4.22,4.22,0,0,1,0,.55h0a1.18,1.18,0,0,1,.45-.49,1.3,1.3,0,0,1,.68-.18,1.25,1.25,0,0,1,1,.38,1.73,1.73,0,0,1,.33,1.18V7.52Z" transform="translate(-1.16 -1.45)"/><path class="cls-1" d="M8.89,2.08A.47.47,0,0,1,9,1.76a.3.3,0,0,1,.23-.11.31.31,0,0,1,.23.11.49.49,0,0,1,.09.32.5.5,0,0,1-.09.33.31.31,0,0,1-.23.11A.3.3,0,0,1,9,2.41.5.5,0,0,1,8.89,2.08Zm.59,5.44H8.94V3.24h.54Z" transform="translate(-1.16 -1.45)"/><path class="cls-1" d="M12.73,7.52V4.75a1.25,1.25,0,0,0-.2-.78.73.73,0,0,0-.62-.25,1,1,0,0,0-.83.36,2.05,2.05,0,0,0-.26,1.2V7.52h-.55V3.24h.45l.08.59h0a1.17,1.17,0,0,1,.47-.49A1.26,1.26,0,0,1,12,3.17a1.22,1.22,0,0,1,1,.37,1.76,1.76,0,0,1,.33,1.19V7.52Z" transform="translate(-1.16 -1.45)"/><path class="cls-1" d="M15.55,7.6A1.52,1.52,0,0,1,14.29,7a2.54,2.54,0,0,1-.46-1.6,2.88,2.88,0,0,1,.43-1.65,1.35,1.35,0,0,1,1.15-.6,1.26,1.26,0,0,1,1.07.52,2.32,2.32,0,0,1,.4,1.4V5.5H14.4a1.94,1.94,0,0,0,.32,1.15,1,1,0,0,0,.85.39,2.55,2.55,0,0,0,1.15-.29v.58a2.84,2.84,0,0,1-.54.21A2.86,2.86,0,0,1,15.55,7.6Zm-.14-3.89a.86.86,0,0,0-.7.33,1.77,1.77,0,0,0-.3.93h1.88A1.67,1.67,0,0,0,16.06,4,.76.76,0,0,0,15.41,3.71Z" transform="translate(-1.16 -1.45)"/></g><g id="Law_Firm" data-name="Law Firm"><path class="cls-2" d="M1.39,14.65V11.43h.32v2.88H3v.34Z" transform="translate(-1.16 -1.45)"/><path class="cls-2" d="M4.59,14.65l-.06-.35h0a.92.92,0,0,1-.32.31.87.87,0,0,1-.39.08.63.63,0,0,1-.49-.19A.7.7,0,0,1,3.13,14c0-.49.34-.74,1-.77h.36v-.15a.69.69,0,0,0-.1-.42.43.43,0,0,0-.35-.13,1.34,1.34,0,0,0-.6.18l-.09-.28a1.52,1.52,0,0,1,.34-.15,1.57,1.57,0,0,1,.37-.05.72.72,0,0,1,.56.19.83.83,0,0,1,.19.61v1.65Zm-.73-.26a.58.58,0,0,0,.47-.19.71.71,0,0,0,.18-.52v-.22l-.32,0a1.1,1.1,0,0,0-.56.13.44.44,0,0,0-.17.37.38.38,0,0,0,.11.3A.4.4,0,0,0,3.86,14.39Z" transform="translate(-1.16 -1.45)"/><path class="cls-2" d="M7.11,14.65l-.39-1.42c0-.08-.07-.28-.13-.59h0c-.05.26-.1.46-.13.6L6,14.65H5.66l-.57-2.41h.33c.14.6.24,1.06.31,1.38a5,5,0,0,1,.13.64h0l.07-.33c0-.13.06-.23.08-.31l.39-1.38h.35l.38,1.38q.11.38.15.63h0l0-.24c0-.11.16-.7.41-1.77h.33l-.59,2.41Z" transform="translate(-1.16 -1.45)"/><path class="cls-2" d="M9.79,14.65H9.46V11.43H11v.33H9.79v1.18H11v.33H9.79Z" transform="translate(-1.16 -1.45)"/><path class="cls-2" d="M11.38,11.63a.23.23,0,0,1,.06-.18.16.16,0,0,1,.13-.06.2.2,0,0,1,.14.06.35.35,0,0,1,0,.36.2.2,0,0,1-.14.06.16.16,0,0,1-.13-.06A.24.24,0,0,1,11.38,11.63Zm.35,3.06h-.32V12.28h.32Z" transform="translate(-1.16 -1.45)"/><path class="cls-2" d="M13.07,12.19a1,1,0,0,1,.26,0l-.05.34-.23,0a.53.53,0,0,0-.44.23,1,1,0,0,0-.18.59v1.3h-.32V12.24h.26l0,.44h0a1.18,1.18,0,0,1,.29-.36A.61.61,0,0,1,13.07,12.19Z" transform="translate(-1.16 -1.45)"/><path class="cls-2" d="M16.32,14.65V13.08a.71.71,0,0,0-.11-.43.38.38,0,0,0-.34-.15.52.52,0,0,0-.44.2,1.06,1.06,0,0,0-.14.6v1.35H15V13.08a.71.71,0,0,0-.11-.43.39.39,0,0,0-.34-.15.49.49,0,0,0-.44.21,1.26,1.26,0,0,0-.14.67v1.27h-.32V12.24h.26l0,.33h0a.68.68,0,0,1,.25-.28.79.79,0,0,1,.37-.1.63.63,0,0,1,.65.41h0a.77.77,0,0,1,.27-.3.81.81,0,0,1,.41-.11.67.67,0,0,1,.54.21,1,1,0,0,1,.18.67v1.58Z" transform="translate(-1.16 -1.45)"/><path class="cls-2" d="M17.24,14.14l0,0c0,.15-.08.32-.15.51s-.13.38-.19.55h-.25c0-.16.08-.34.12-.57s.07-.4.09-.54Z" transform="translate(-1.16 -1.45)"/><path class="cls-2" d="M20.19,12.87a.76.76,0,0,1-.23.59,1,1,0,0,1-.65.2h-.26v1h-.26V12.15h.57C19.91,12.15,20.19,12.39,20.19,12.87Zm-1.14.54h.23a.8.8,0,0,0,.49-.12.51.51,0,0,0,.15-.4.47.47,0,0,0-.14-.37.69.69,0,0,0-.45-.12h-.28Z" transform="translate(-1.16 -1.45)"/><path class="cls-2" d="M19.64,14.46a.29.29,0,0,1,0-.17.18.18,0,0,1,.14-.06.16.16,0,0,1,.13.06.23.23,0,0,1,.05.17.22.22,0,0,1-.05.17.16.16,0,0,1-.13.06.15.15,0,0,1-.13,0A.26.26,0,0,1,19.64,14.46Z" transform="translate(-1.16 -1.45)"/><path class="cls-2" d="M21.56,12.37a.68.68,0,0,0-.57.27,1.25,1.25,0,0,0-.21.76,1.24,1.24,0,0,0,.2.75.68.68,0,0,0,.58.27,1.83,1.83,0,0,0,.52-.09v.25a1.34,1.34,0,0,1-.56.1.87.87,0,0,1-.75-.34,1.47,1.47,0,0,1-.27-.95,1.7,1.7,0,0,1,.13-.67,1,1,0,0,1,.37-.45,1,1,0,0,1,.56-.16,1.34,1.34,0,0,1,.61.14l-.11.25A1,1,0,0,0,21.56,12.37Z" transform="translate(-1.16 -1.45)"/><path class="cls-2" d="M22.33,14.46a.29.29,0,0,1,0-.17.16.16,0,0,1,.13-.06.17.17,0,0,1,.14.06.29.29,0,0,1,.05.17.26.26,0,0,1-.05.17.17.17,0,0,1-.14.06.13.13,0,0,1-.12,0S22.33,14.55,22.33,14.46Z" transform="translate(-1.16 -1.45)"/></g><g id="Line"><path class="cls-3" d="M17.11,9.32s0,0,0,0v0Z" transform="translate(-1.16 -1.45)"/><path class="cls-3" d="M17,9.26s-.06,0-.05.07,0,0,.07-.05,0,0,0,0,0,0,0,0a.09.09,0,0,0-.11,0Z" transform="translate(-1.16 -1.45)"/><path class="cls-3" d="M14.69,9.21h0Z" transform="translate(-1.16 -1.45)"/><path class="cls-3" d="M13.29,9.19h0Z" transform="translate(-1.16 -1.45)"/><path class="cls-3" d="M13.05,9.15h0Z" transform="translate(-1.16 -1.45)"/><path class="cls-3" d="M14.69,9.21h0S14.68,9.21,14.69,9.21Z" transform="translate(-1.16 -1.45)"/><path class="cls-3" d="M16.64,9.34h0Z" transform="translate(-1.16 -1.45)"/><path class="cls-3" d="M15.31,9.18h0Z" transform="translate(-1.16 -1.45)"/><path class="cls-3" d="M15.79,9.18s0,0,0,0,0,0,0,0Z" transform="translate(-1.16 -1.45)"/><path class="cls-3" d="M16.54,9.23h0Z" transform="translate(-1.16 -1.45)"/><path class="cls-3" d="M15,9.18h0Z" transform="translate(-1.16 -1.45)"/><path class="cls-3" d="M1.72,9.39h0Z" transform="translate(-1.16 -1.45)"/><path class="cls-3" d="M1.17,9.25h0v0Z" transform="translate(-1.16 -1.45)"/><path class="cls-3" d="M12.62,9.12Z" transform="translate(-1.16 -1.45)"/><path class="cls-3" d="M8.6,9.14s-.08,0,0,.06S8.65,9.15,8.6,9.14Z" transform="translate(-1.16 -1.45)"/><path class="cls-3" d="M16.63,9.34h0Z" transform="translate(-1.16 -1.45)"/><polygon class="cls-3" points="7.43 7.75 7.43 7.75 7.43 7.75 7.43 7.75"/><path class="cls-3" d="M11.61,9.13v0Z" transform="translate(-1.16 -1.45)"/><path class="cls-3" d="M12.36,9.17h0Z" transform="translate(-1.16 -1.45)"/><path class="cls-3" d="M11.22,9.17h0Z" transform="translate(-1.16 -1.45)"/><path class="cls-3" d="M10.81,9.17h0Z" transform="translate(-1.16 -1.45)"/><path class="cls-3" d="M3,9.37l0,0S2.88,9.37,3,9.37Z" transform="translate(-1.16 -1.45)"/><path class="cls-3" d="M16.64,9.32v0h0S16.65,9.33,16.64,9.32Z" transform="translate(-1.16 -1.45)"/><path class="cls-3" d="M11.2,9.4h0Z" transform="translate(-1.16 -1.45)"/><path class="cls-3" d="M5.86,9.37h0Z" transform="translate(-1.16 -1.45)"/><path class="cls-3" d="M11,9.4l0,0h0Z" transform="translate(-1.16 -1.45)"/><path class="cls-3" d="M2.93,9.35Z" transform="translate(-1.16 -1.45)"/><path class="cls-3" d="M2.51,9.41c.06,0,0,0,0-.05s0,0,.06,0,.08,0,.11,0,0,0,0,0,.15,0,.2,0h0a.11.11,0,0,1,0,0s.05,0,.06,0H3s0,0,0,0a.5.5,0,0,1,.16,0s-.1,0,0,0H3c0,.05,0,0,0,.05h.18s0,0,0-.05.1.08.19,0,0-.07.1,0l0,0c.09,0,0,0,.14,0h0s0,0,.08,0v0c.09,0,.19,0,.29,0s0,0,0,0a1.26,1.26,0,0,1,.39,0l0,0s0,0,0,0,0,0,0,0,0,0,0,0a.62.62,0,0,1,.33,0h0c.07,0,.08-.06.15,0h0a1.45,1.45,0,0,1,.43,0s.15,0,.16,0a.54.54,0,0,0,.18.06s.05,0,.09-.05v0l0,0,0,0h0s0,0,0,0,.14,0,.14,0l.14,0,0,0c.07,0,0,0,.08,0s0,0,0,0a.44.44,0,0,0,.17,0v0h.33s0-.05,0-.05v0s0,0,0,0,0,0,0,.05h0s0,0,0,0,.09,0,.12,0h.26s0,0,.07,0a1.38,1.38,0,0,0,.22,0c.06,0,0,0,0,0s.08,0,0,.05l.25,0,0,0a0,0,0,0,1,0,0h0c.14,0,.33.08.44,0h0l.12,0c.05,0,0,0,0,0s.19,0,.3,0,.28,0,.39,0H9s0,0,.06,0,0,0,0,0a4.48,4.48,0,0,1,.73.05c.09,0,0-.1.17-.05l0,0c.18,0,.37,0,.54,0h0s.13,0,.13,0,0,0,0,0,.09,0,.11,0h0s.11,0,.09,0,.13,0,.18,0,.11,0,.12,0,.12,0,.16,0,0,0,0,0,.09,0,.08,0,.18,0,.23,0a3,3,0,0,1,.39-.05s-.14,0-.13.05a1.12,1.12,0,0,1,.31-.05s0,0,0,0,.23,0,.34,0h0s.05,0,.05,0h0s.08-.06.09-.07.1,0,0,.09,0,0,0,0,0,0,0,0,0,0,.12,0l0,0a.16.16,0,0,1,.12,0s0,0,0,0,.17-.05.28,0c0,0,0,0,0,0h.06l0,0c.06,0,.1,0,.14,0h.06l-.05,0c.05,0,0-.05.06,0s.05,0,.08,0h0a.09.09,0,0,1,.09,0s0,0,0,.05.12,0,.15,0a0,0,0,0,0,0,0l0,0s0,0,0,0,0,0,.07,0h0c.08,0,.16,0,.24,0s-.07,0,0,0,.23,0,.34,0h0c0-.05.08,0,.14,0a0,0,0,0,0,0,0,1.48,1.48,0,0,0,.27,0h.15s0,0,0,0c.15.08.28,0,.41,0h.09s0,0,0,0l.07,0s0,0,0,.05a0,0,0,0,1,0,0c.06,0,0,0,.09,0h0l.09,0s0,0,0,0,.09-.05.13,0l-.07,0a.2.2,0,0,0,.08,0h0l.08,0h0c0-.07.11,0,.19-.06-.08.05,0,0,0,.06l0,0s.06,0,.11,0,0,0,0,0,0,0,0,0,.17,0,.27,0,.11-.05.19-.07,0,0,0,0a.24.24,0,0,0,.12,0s0,0,0,0,0,0,.07,0,0,0,0,0l.12,0s0,0,0,0,.12,0,.13,0h0s0,0,0,0-.06,0-.06,0h0s-.12,0-.18,0l0,0-.06,0s0,0,0,0,0,0-.07,0h0s0,0,0,0-.12,0-.14,0h0c-.1,0,0,0-.08.07l-.06-.08v0h0s0,0,0,0-.14,0-.15,0,0,0,0,0-.06,0-.11,0,.06,0,0,0-.09,0-.13,0-.09,0-.15,0l-.19,0h0s-.07,0-.12,0,0,0,0,0h0a.06.06,0,0,1-.05,0v0a.57.57,0,0,1-.19,0s.06.07,0,.09,0,0,0,0h0l0,0s0,0-.05,0,0,0,0,0h0l-.08,0s0,0,0,0,0,0,0,0-.05,0-.06,0l0,0s-.14,0-.11,0h0c-.09,0-.2,0-.3,0h0a.74.74,0,0,0-.17,0s0,0,0,0a.16.16,0,0,1-.12,0c.05,0,0,0,.05,0a.19.19,0,0,0-.13,0s0,0-.07,0l0,0h-.09l0,0c-.12,0-.22.07-.31,0s.07,0,0,0-.11-.06-.13-.06-.07,0-.15,0,0,0,0,.06-.06-.05,0-.06h0s0,0,0,0h0s-.1,0-.08,0,0,0,0,0a1.09,1.09,0,0,0-.18,0s0,0,0,0-.05,0-.12,0,0,0-.06,0,0,0,0,0-.12,0-.16,0h0l0,0s0,0,0,0,0,0,0,.06-.08,0-.09,0,0,0,.06,0h-.05s0,0,0,0,0,0-.13,0,0,0,0,0,0,0,0,.05-.06,0-.09,0h0s0,0-.07,0,0,0,0,0-.1,0-.16,0,0,0,0,0-.07,0-.14,0,0,0,0,0l.12,0-.08,0s.07,0,.1,0,0,0,0,0-.09,0-.15,0V9.15c-.09,0-.15,0-.25,0h0s-.07,0-.1,0,0,0,0,0-.08,0-.09,0l0,0c-.08,0-.09.05-.17.05s0,0,0-.05,0,0,0,0-.08,0-.11,0,0,0,0,0h0s-.05,0,0,0-.24,0-.31-.05h-.18c-.07,0,0,.05-.13,0s.05,0,0,0-.1,0-.16,0h0c-.05,0-.11,0-.18,0h0a.65.65,0,0,1-.21.05s0,0,0,0,0,.05-.06.05-.06,0-.07-.05H10s-.07,0-.1,0h0c-.09,0-.09,0-.19,0h0c-.05,0,0,0-.09,0l0,0a.69.69,0,0,1-.18,0,.94.94,0,0,1,.15-.06l-.13,0h0a.25.25,0,0,1-.16,0c0-.07-.18,0-.23-.08a2.41,2.41,0,0,1-.38,0c.05.06,0,0,0,.06H8.59l-.1,0s0,0,0,0,0,0-.08,0,0,0-.06,0l.06,0c-.1,0-.09-.05-.19,0h0s-.19,0-.24,0,0,0,0,0-.27,0-.37,0v0s0,0-.07,0,0,0,0,0a.12.12,0,0,1-.09,0l0,0c-.12,0-.18,0-.28,0s-.1-.06-.14-.06h0c-.14,0-.24,0-.37.05a2.15,2.15,0,0,0-.4,0s0,0,0,0-.08,0-.08,0h0s-.08,0-.13,0v.05c-.13-.08-.33,0-.4,0a.38.38,0,0,0-.1,0v0H5.38l0,0c-.06,0-.08.08-.13.09l0,0a.81.81,0,0,0-.31,0s0,0,0,0-.19,0-.17,0-.11,0-.16,0v0a.14.14,0,0,1-.11.06s0,0,0,0,0,0-.11,0l0,0c-.06,0,0,0-.08,0s-.1,0-.11,0a.06.06,0,0,1-.07,0v0c-.09,0-.13,0-.19,0v0h.12s-.06,0,0-.06a.41.41,0,0,1-.18.05H3.84s-.06,0-.09,0,0,0,0,0,0,0,0,0h.08a.08.08,0,0,1-.07,0l0,0s-.12-.06-.13-.08-.21,0-.26.06,0,0,0,0h0c-.05,0-.15,0-.16,0s0,0,0,0h0c-.17-.06-.27.09-.46,0h0c-.22,0-.44,0-.65,0s-.07,0-.11,0v0l-.06,0c-.09,0-.16-.08-.27,0v0s-.12,0-.12,0a0,0,0,0,1,0,0v0l-.1,0c-.08,0,0-.06-.1-.06s-.12,0-.1.05,0,0,0,0h0s0,.09.06.12l.07,0,0,0H1.26s.05,0,.08,0l0,0,.07,0s0,0,0,0,0,0,0-.05,0,0,.06,0,0,0,0,0,.08,0,.1,0,.11,0,.11,0l.08,0c-.05.06.12,0,.1.06s.15,0,.22,0h0l.08,0s.07,0,.1-.07,0,0,0,.08.08,0,.07-.05,0,0,.05,0,0,0,.07,0,0,.05.07,0S2.51,9.41,2.51,9.41Zm1.43-.08Zm.12,0H4s0,0,0,0Zm-.25-.2h0Z" transform="translate(-1.16 -1.45)"/><polygon class="cls-3" points="2.61 7.72 2.6 7.73 2.61 7.73 2.62 7.72 2.61 7.72"/><polygon class="cls-3" points="13.55 7.77 13.54 7.77 13.55 7.77 13.55 7.77"/><polygon class="cls-3" points="4.57 7.94 4.56 7.93 4.55 7.93 4.57 7.94"/><path class="cls-3" d="M15.38,9.31h0Z" transform="translate(-1.16 -1.45)"/><path class="cls-3" d="M15.66,9.32h0Z" transform="translate(-1.16 -1.45)"/><path class="cls-3" d="M15.88,9.33h0Z" transform="translate(-1.16 -1.45)"/><path class="cls-3" d="M12.37,9.36Z" transform="translate(-1.16 -1.45)"/><path class="cls-3" d="M13.42,9.3h0Z" transform="translate(-1.16 -1.45)"/><polygon class="cls-3" points="10.04 7.95 10.04 7.95 10.04 7.95 10.04 7.95"/><path class="cls-3" d="M13.34,9.31h0Z" transform="translate(-1.16 -1.45)"/><polygon class="cls-3" points="15.68 7.9 15.69 7.9 15.69 7.89 15.68 7.9"/><path class="cls-3" d="M16.85,9.34h0Z" transform="translate(-1.16 -1.45)"/><path class="cls-3" d="M16.89,9.33h0Z" transform="translate(-1.16 -1.45)"/><path class="cls-3" d="M16.55,9.33h0Z" transform="translate(-1.16 -1.45)"/><path class="cls-3" d="M16.46,9.33l.08,0h0S16.48,9.31,16.46,9.33Z" transform="translate(-1.16 -1.45)"/><path class="cls-3" d="M16.09,9.21h.07s0,0,0,0S16.19,9.21,16.09,9.21Z" transform="translate(-1.16 -1.45)"/><path class="cls-3" d="M15.86,9.19s0,0,0,0S15.83,9.18,15.86,9.19Z" transform="translate(-1.16 -1.45)"/><path class="cls-3" d="M14.19,9.19v0S14.19,9.17,14.19,9.19Z" transform="translate(-1.16 -1.45)"/><polygon class="cls-3" points="12.71 7.88 12.74 7.89 12.75 7.87 12.71 7.88"/><polygon class="cls-3" points="12.52 7.69 12.53 7.69 12.48 7.7 12.52 7.69"/><path class="cls-3" d="M10.88,9.15v0S10.92,9.14,10.88,9.15Z" transform="translate(-1.16 -1.45)"/><path class="cls-3" d="M9.67,9.18a.06.06,0,0,0-.06,0S9.66,9.19,9.67,9.18Z" transform="translate(-1.16 -1.45)"/><polygon class="cls-3" points="4.88 7.68 4.91 7.67 4.86 7.68 4.88 7.68"/><rect class="cls-4" x="17.45" y="7.45" width="0.65" height="0.65"/><rect class="cls-4" x="18.84" y="7.48" width="0.65" height="0.65"/><rect class="cls-4" x="20.17" y="7.48" width="0.65" height="0.65"/></g></svg>